<svg xmlns="http://www.w3.org/2000/svg" width="1100" height="500" viewBox="0 0 1100 500">
<defs>
<linearGradient id="paper" x1="0" y1="0" x2="1" y2="1"><stop offset="0%" stop-color="#fffaf2"/><stop offset="100%" stop-color="#f6e6c8"/></linearGradient>
<filter id="softShadow" x="-20%" y="-20%" width="140%" height="140%"><feDropShadow dx="0" dy="14" stdDeviation="16" flood-color="#5a3611" flood-opacity=".12"/></filter>
</defs>
<rect width="100%" height="100%" rx="28" fill="url(#paper)"/>
<rect x="28" y="28" width="1044" height="444" rx="24" fill="#fff8ee" stroke="#e1bd80" filter="url(#softShadow)"/>
<style>text{font-family:Source Sans 3,Source Sans Pro,Arial,sans-serif;fill:#241b14}.small{font-size:14px;fill:#746656}.axis{stroke:#b9873e;stroke-width:1.2}.margin{fill:#2f6bb8}.eps{fill:#d46f2a}.grid{stroke:#ead7b8;stroke-width:1}</style>
<rect x="745" y="48" width="16" height="16" rx="4" class="margin"/><text x="769" y="61" class="small">top-two margin</text>
<rect x="912" y="48" width="16" height="16" rx="4" class="eps"/><text x="936" y="61" class="small">2ε drift bound</text>
<line x1="92" y1="430.0" x2="1042" y2="430.0" class="grid"/>
<text x="78" y="434.0" text-anchor="end" class="small">0</text>
<line x1="92" y1="335.5" x2="1042" y2="335.5" class="grid"/>
<text x="78" y="339.5" text-anchor="end" class="small">0.0006</text>
<line x1="92" y1="241.0" x2="1042" y2="241.0" class="grid"/>
<text x="78" y="245.0" text-anchor="end" class="small">0.0012</text>
<line x1="92" y1="146.5" x2="1042" y2="146.5" class="grid"/>
<text x="78" y="150.5" text-anchor="end" class="small">0.0018</text>
<line x1="92" y1="52.0" x2="1042" y2="52.0" class="grid"/>
<text x="78" y="56.0" text-anchor="end" class="small">0.0024</text>
<line x1="92" y1="430" x2="1042" y2="430" class="axis"/>
<line x1="92" y1="52" x2="92" y2="430" class="axis"/>
<rect x="108.0" y="159.3" width="20.6" height="270.7" rx="6" class="margin"/>
<rect x="134.6" y="420.3" width="20.6" height="9.7" rx="6" class="eps"/>
<text x="131.6" y="458" text-anchor="middle" class="small">1</text>
<rect x="187.2" y="101.3" width="20.6" height="328.7" rx="6" class="margin"/>
<rect x="213.8" y="430.0" width="20.6" height="0.0" rx="6" class="eps"/>
<text x="210.8" y="458" text-anchor="middle" class="small">2</text>
<rect x="266.3" y="207.6" width="20.6" height="222.4" rx="6" class="margin"/>
<rect x="292.9" y="430.0" width="20.6" height="0.0" rx="6" class="eps"/>
<text x="289.9" y="458" text-anchor="middle" class="small">3</text>
<rect x="345.5" y="275.3" width="20.6" height="154.7" rx="6" class="margin"/>
<rect x="372.1" y="428.8" width="20.6" height="1.2" rx="6" class="eps"/>
<text x="369.1" y="458" text-anchor="middle" class="small">4</text>
<rect x="424.7" y="101.3" width="20.6" height="328.7" rx="6" class="margin"/>
<rect x="451.2" y="430.0" width="20.6" height="0.0" rx="6" class="eps"/>
<text x="448.2" y="458" text-anchor="middle" class="small">5</text>
<rect x="503.8" y="178.6" width="20.6" height="251.4" rx="6" class="margin"/>
<rect x="530.4" y="430.0" width="20.6" height="0.0" rx="6" class="eps"/>
<text x="527.4" y="458" text-anchor="middle" class="small">6</text>
<rect x="583.0" y="236.6" width="20.6" height="193.4" rx="6" class="margin"/>
<rect x="609.6" y="430.0" width="20.6" height="0.0" rx="6" class="eps"/>
<text x="606.6" y="458" text-anchor="middle" class="small">7</text>
<rect x="662.2" y="178.6" width="20.6" height="251.4" rx="6" class="margin"/>
<rect x="688.8" y="430.0" width="20.6" height="0.0" rx="6" class="eps"/>
<text x="685.8" y="458" text-anchor="middle" class="small">8</text>
<rect x="741.3" y="178.6" width="20.6" height="251.4" rx="6" class="margin"/>
<rect x="767.9" y="430.0" width="20.6" height="0.0" rx="6" class="eps"/>
<text x="764.9" y="458" text-anchor="middle" class="small">9</text>
<rect x="820.5" y="178.6" width="20.6" height="251.4" rx="6" class="margin"/>
<rect x="847.1" y="430.0" width="20.6" height="0.0" rx="6" class="eps"/>
<text x="844.1" y="458" text-anchor="middle" class="small">10</text>
<rect x="899.7" y="265.7" width="20.6" height="164.3" rx="6" class="margin"/>
<rect x="926.3" y="430.0" width="20.6" height="0.0" rx="6" class="eps"/>
<text x="923.3" y="458" text-anchor="middle" class="small">11</text>
<rect x="978.8" y="178.6" width="20.6" height="251.4" rx="6" class="margin"/>
<rect x="1005.4" y="430.0" width="20.6" height="0.0" rx="6" class="eps"/>
<text x="1002.4" y="458" text-anchor="middle" class="small">12</text>
<text x="92" y="36" class="small">logit units</text>
<text x="567.0" y="470" text-anchor="middle" class="small">prompt index</text>
</svg>