<svg xmlns="http://www.w3.org/2000/svg" width="1100" height="680" viewBox="0 0 1100 680">
<defs>
<linearGradient id="paper" x1="0" y1="0" x2="1" y2="1"><stop offset="0%" stop-color="#fffaf2"/><stop offset="100%" stop-color="#f6e6c8"/></linearGradient>
<filter id="softShadow" x="-20%" y="-20%" width="140%" height="140%"><feDropShadow dx="0" dy="14" stdDeviation="16" flood-color="#5a3611" flood-opacity=".12"/></filter>
</defs>
<rect width="100%" height="100%" rx="28" fill="url(#paper)"/>
<rect x="28" y="28" width="1044" height="624" rx="24" fill="#fff8ee" stroke="#e1bd80" filter="url(#softShadow)"/>
<style>text{font-family:Source Sans 3,Source Sans Pro,Arial,sans-serif;fill:#241b14}.title{font-size:34px;font-weight:700;letter-spacing:-.02em}.subtitle{font-size:17px;fill:#746656}.small{font-size:14px;fill:#746656}.axis{stroke:#b9873e;stroke-width:1.2}.margin{fill:#2f6bb8}.eps{fill:#d46f2a}.grid{stroke:#ead7b8;stroke-width:1}.rule{stroke:#d9b16d;stroke-width:1}</style>
<text x="76" y="78" class="title">Margin certificate diagnostic</text>
<text x="76" y="112" class="subtitle">For each prompt, compare the top-two logit margin with the theorem threshold 2ε.</text>
<rect x="76" y="130" width="16" height="16" rx="4" class="margin"/><text x="102" y="144" class="small">top-two margin</text>
<rect x="248" y="130" width="16" height="16" rx="4" class="eps"/><text x="274" y="144" class="small">2ε drift bound</text>
<line x1="92" y1="530.0" x2="1042" y2="530.0" class="grid"/>
<text x="78" y="534.0" text-anchor="end" class="small">0</text>
<line x1="92" y1="440.0" x2="1042" y2="440.0" class="grid"/>
<text x="78" y="444.0" text-anchor="end" class="small">0.0006</text>
<line x1="92" y1="350.0" x2="1042" y2="350.0" class="grid"/>
<text x="78" y="354.0" text-anchor="end" class="small">0.0012</text>
<line x1="92" y1="260.0" x2="1042" y2="260.0" class="grid"/>
<text x="78" y="264.0" text-anchor="end" class="small">0.0018</text>
<line x1="92" y1="170.0" x2="1042" y2="170.0" class="grid"/>
<text x="78" y="174.0" text-anchor="end" class="small">0.0024</text>
<line x1="92" y1="530" x2="1042" y2="530" class="axis"/>
<line x1="92" y1="170" x2="92" y2="530" class="axis"/>
<rect x="108.0" y="272.2" width="20.6" height="257.8" rx="6" class="margin"/>
<rect x="134.6" y="520.8" width="20.6" height="9.2" rx="6" class="eps"/>
<text x="131.6" y="558" text-anchor="middle" class="small">1</text>
<rect x="187.2" y="217.0" width="20.6" height="313.0" rx="6" class="margin"/>
<rect x="213.8" y="530.0" width="20.6" height="0.0" rx="6" class="eps"/>
<text x="210.8" y="558" text-anchor="middle" class="small">2</text>
<rect x="266.3" y="318.2" width="20.6" height="211.8" rx="6" class="margin"/>
<rect x="292.9" y="530.0" width="20.6" height="0.0" rx="6" class="eps"/>
<text x="289.9" y="558" text-anchor="middle" class="small">3</text>
<rect x="345.5" y="382.7" width="20.6" height="147.3" rx="6" class="margin"/>
<rect x="372.1" y="528.8" width="20.6" height="1.2" rx="6" class="eps"/>
<text x="369.1" y="558" text-anchor="middle" class="small">4</text>
<rect x="424.7" y="217.0" width="20.6" height="313.0" rx="6" class="margin"/>
<rect x="451.2" y="530.0" width="20.6" height="0.0" rx="6" class="eps"/>
<text x="448.2" y="558" text-anchor="middle" class="small">5</text>
<rect x="503.8" y="290.6" width="20.6" height="239.4" rx="6" class="margin"/>
<rect x="530.4" y="530.0" width="20.6" height="0.0" rx="6" class="eps"/>
<text x="527.4" y="558" text-anchor="middle" class="small">6</text>
<rect x="583.0" y="345.9" width="20.6" height="184.1" rx="6" class="margin"/>
<rect x="609.6" y="530.0" width="20.6" height="0.0" rx="6" class="eps"/>
<text x="606.6" y="558" text-anchor="middle" class="small">7</text>
<rect x="662.2" y="290.6" width="20.6" height="239.4" rx="6" class="margin"/>
<rect x="688.8" y="530.0" width="20.6" height="0.0" rx="6" class="eps"/>
<text x="685.8" y="558" text-anchor="middle" class="small">8</text>
<rect x="741.3" y="290.6" width="20.6" height="239.4" rx="6" class="margin"/>
<rect x="767.9" y="530.0" width="20.6" height="0.0" rx="6" class="eps"/>
<text x="764.9" y="558" text-anchor="middle" class="small">9</text>
<rect x="820.5" y="290.6" width="20.6" height="239.4" rx="6" class="margin"/>
<rect x="847.1" y="530.0" width="20.6" height="0.0" rx="6" class="eps"/>
<text x="844.1" y="558" text-anchor="middle" class="small">10</text>
<rect x="899.7" y="373.5" width="20.6" height="156.5" rx="6" class="margin"/>
<rect x="926.3" y="530.0" width="20.6" height="0.0" rx="6" class="eps"/>
<text x="923.3" y="558" text-anchor="middle" class="small">11</text>
<rect x="978.8" y="290.6" width="20.6" height="239.4" rx="6" class="margin"/>
<rect x="1005.4" y="530.0" width="20.6" height="0.0" rx="6" class="eps"/>
<text x="1002.4" y="558" text-anchor="middle" class="small">12</text>
<text x="92" y="152" class="small">logit units</text>
<line x1="92" y1="578" x2="1042" y2="578" class="rule"/>
<text x="92" y="610" class="small">Blue above orange means margin &gt; 2ε, so the Lean theorem certifies the greedy token is stable for that drift bound.</text>
<text x="92" y="637" class="small">Data: local HF single-vs-batched forwards for sshleifer/tiny-gpt2.</text>
<text x="92" y="658" class="small">Exact prompt labels and values are in the JSON output.</text>
</svg>